<svg width="22" height="22" viewBox="0 0 22 22" fill="none" xmlns="http://www.w3.org/2000/svg">
<path d="M10.0548 10.9997C10.0548 11.2503 10.1544 11.4907 10.3316 11.6679C10.5088 11.8451 10.7492 11.9447 10.9998 11.9447C11.2504 11.9447 11.4908 11.8451 11.668 11.6679C11.8452 11.4907 11.9448 11.2503 11.9448 10.9997C11.9448 10.7491 11.8452 10.5087 11.668 10.3315C11.4908 10.1543 11.2504 10.0547 10.9998 10.0547C10.7492 10.0547 10.5088 10.1543 10.3316 10.3315C10.1544 10.5087 10.0548 10.7491 10.0548 10.9997ZM13.9923 10.9997C13.9923 11.2503 14.0919 11.4907 14.2691 11.6679C14.4463 11.8451 14.6867 11.9447 14.9373 11.9447C15.1879 11.9447 15.4283 11.8451 15.6055 11.6679C15.7827 11.4907 15.8823 11.2503 15.8823 10.9997C15.8823 10.7491 15.7827 10.5087 15.6055 10.3315C15.4283 10.1543 15.1879 10.0547 14.9373 10.0547C14.6867 10.0547 14.4463 10.1543 14.2691 10.3315C14.0919 10.5087 13.9923 10.7491 13.9923 10.9997ZM6.1173 10.9997C6.1173 11.2503 6.21687 11.4907 6.39409 11.6679C6.57131 11.8451 6.81167 11.9447 7.0623 11.9447C7.31293 11.9447 7.5533 11.8451 7.73052 11.6679C7.90774 11.4907 8.0073 11.2503 8.0073 10.9997C8.0073 10.7491 7.90774 10.5087 7.73052 10.3315C7.5533 10.1543 7.31293 10.0547 7.0623 10.0547C6.81167 10.0547 6.57131 10.1543 6.39409 10.3315C6.21687 10.5087 6.1173 10.7491 6.1173 10.9997ZM19.1347 7.58194C18.6898 6.52472 18.0519 5.57578 17.2388 4.76072C16.4314 3.95038 15.4729 3.30625 14.4176 2.86481C13.3347 2.41003 12.185 2.17969 10.9998 2.17969H10.9604C9.76737 2.18559 8.61171 2.42184 7.52496 2.88647C6.47868 3.33243 5.52917 3.9777 4.72933 4.78631C3.92411 5.59941 3.29214 6.54441 2.85508 7.59769C2.40227 8.68838 2.17389 9.84798 2.1798 11.041C2.18648 12.4083 2.50994 13.7554 3.1248 14.9766V17.9691C3.1248 18.2093 3.22021 18.4396 3.39005 18.6095C3.55989 18.7793 3.79024 18.8747 4.03043 18.8747H7.0249C8.2461 19.4896 9.59319 19.813 10.9604 19.8197H11.0018C12.1811 19.8197 13.3249 19.5913 14.4018 19.1444C15.4518 18.7082 16.4067 18.0716 17.2132 17.2702C18.0263 16.465 18.6661 15.5239 19.113 14.4745C19.5777 13.3878 19.8139 12.2321 19.8198 11.0391C19.8257 9.8401 19.5934 8.67657 19.1347 7.58194ZM16.1599 16.2051C14.7798 17.5714 12.9489 18.3235 10.9998 18.3235H10.9663C9.77918 18.3175 8.5999 18.0222 7.55843 17.467L7.39305 17.3785H4.62105V14.6065L4.53246 14.4411C3.97727 13.3996 3.68196 12.2203 3.67605 11.0332C3.66818 9.07032 4.41827 7.22757 5.79443 5.8396C7.16862 4.45163 9.00546 3.68381 10.9683 3.67594H11.0018C11.9862 3.67594 12.941 3.86691 13.8407 4.24491C14.7188 4.61307 15.5063 5.14266 16.1835 5.81991C16.8588 6.49519 17.3904 7.28466 17.7585 8.16272C18.1405 9.07229 18.3314 10.037 18.3275 11.0332C18.3157 12.994 17.5459 14.8309 16.1599 16.2051Z" fill="#4364F7"/>
</svg>
