<svg width="16" height="17" viewBox="0 0 16 17" fill="none" xmlns="http://www.w3.org/2000/svg">
<path d="M4.47393 9.70215L2 11.7021V3.70215C2 3.56954 2.05268 3.44236 2.14645 3.3486C2.24021 3.25483 2.36739 3.20215 2.5 3.20215H10.5C10.6326 3.20215 10.7598 3.25483 10.8536 3.3486C10.9473 3.44236 11 3.56954 11 3.70215V9.20215C11 9.33476 10.9473 9.46193 10.8536 9.5557C10.7598 9.64947 10.6326 9.70215 10.5 9.70215H4.47393Z" stroke="white" stroke-width="1.2" stroke-linecap="round" stroke-linejoin="round"/>
<path d="M5 9.70215V12.2021C5 12.3348 5.05268 12.4619 5.14645 12.5557C5.24021 12.6495 5.36739 12.7021 5.5 12.7021H11.5261L14 14.7021V6.70215C14 6.56954 13.9473 6.44236 13.8536 6.3486C13.7598 6.25483 13.6326 6.20215 13.5 6.20215H11" stroke="white" stroke-width="1.2" stroke-linecap="round" stroke-linejoin="round"/>
</svg>
