<svg width="25" height="25" viewBox="0 0 25 25" fill="none" xmlns="http://www.w3.org/2000/svg">
<path opacity="0.2" d="M3.07373 9.68164H22.5737L22.5743 18.6017C22.5743 18.8007 22.4953 18.9914 22.3546 19.1321C22.214 19.2727 22.0232 19.3517 21.8243 19.3517H3.82428C3.62537 19.3517 3.4346 19.2727 3.29395 19.1321C3.1533 18.9914 3.07428 18.8007 3.07428 18.6017L3.07373 9.68164Z" fill="#E34444"/>
<path d="M21.8257 5.85156H3.82568C3.41147 5.85156 3.07568 6.18735 3.07568 6.60156V18.6016C3.07568 19.0158 3.41147 19.3516 3.82568 19.3516H21.8257C22.2399 19.3516 22.5757 19.0158 22.5757 18.6016V6.60156C22.5757 6.18735 22.2399 5.85156 21.8257 5.85156Z" stroke="#E34444" stroke-width="1.68935" stroke-linecap="round" stroke-linejoin="round"/>
<path d="M16.5737 16.3516H19.5737" stroke="#E34444" stroke-width="1.68935" stroke-linecap="round" stroke-linejoin="round"/>
<path d="M12.0757 16.3516H13.5757" stroke="#E34444" stroke-width="1.68935" stroke-linecap="round" stroke-linejoin="round"/>
<path d="M3.07373 9.68164H22.5737" stroke="#E34444" stroke-width="1.68935" stroke-linecap="round" stroke-linejoin="round"/>
</svg>
