<svg width="16" height="17" viewBox="0 0 16 17" fill="none" xmlns="http://www.w3.org/2000/svg">
<path d="M8 14.2022C8 14.2022 1.75 10.7022 1.75 6.45215C1.75013 5.70099 2.01041 4.97305 2.48659 4.3921C2.96277 3.81115 3.62546 3.41306 4.36199 3.26549C5.09852 3.11793 5.86343 3.23001 6.52666 3.58267C7.18989 3.93534 7.71051 4.50683 8 5.19997L7.99999 5.19997C8.28949 4.50683 8.81011 3.93534 9.47334 3.58268C10.1366 3.23001 10.9015 3.11793 11.638 3.26549C12.3745 3.41305 13.0372 3.81115 13.5134 4.3921C13.9896 4.97305 14.2499 5.70099 14.25 6.45215C14.25 10.7022 8 14.2022 8 14.2022Z" stroke="white" stroke-width="1.5" stroke-linecap="round" stroke-linejoin="round"/>
</svg>
