<svg width="16" height="17" viewBox="0 0 16 17" fill="none" xmlns="http://www.w3.org/2000/svg">
<path d="M7.64654 5.16685L8.88398 3.92941C9.1393 3.67385 9.44246 3.4711 9.77616 3.33275C10.1099 3.19439 10.4675 3.12313 10.8288 3.12305C11.19 3.12296 11.5477 3.19405 11.8815 3.33226C12.2153 3.47046 12.5185 3.67307 12.774 3.9285C13.0294 4.18394 13.232 4.4872 13.3702 4.82096C13.5084 5.15472 13.5795 5.51244 13.5794 5.87369C13.5793 6.23493 13.5081 6.59262 13.3697 6.92631C13.2314 7.26001 13.0286 7.56318 12.7731 7.8185L11.0053 9.58626C10.7499 9.84162 10.4468 10.0442 10.1131 10.1824C9.77949 10.3206 9.42189 10.3917 9.06075 10.3917C8.69962 10.3917 8.34202 10.3206 8.00837 10.1824C7.67473 10.0442 7.37157 9.84162 7.11621 9.58626" stroke="white" stroke-width="1.5" stroke-linecap="round" stroke-linejoin="round"/>
<path d="M8.35378 12.2376L7.11635 13.475C6.86103 13.7306 6.55786 13.9333 6.22416 14.0717C5.89047 14.21 5.53278 14.2813 5.17154 14.2814C4.8103 14.2815 4.45258 14.2104 4.11881 14.0722C3.78505 13.934 3.48179 13.7313 3.22635 13.4759C2.97092 13.2205 2.76831 12.9172 2.63011 12.5835C2.4919 12.2497 2.42081 11.892 2.4209 11.5307C2.42098 11.1695 2.49224 10.8118 2.6306 10.4781C2.76896 10.1444 2.9717 9.84124 3.22726 9.58592L4.99503 7.81815C5.25039 7.56279 5.55355 7.36023 5.88719 7.22203C6.22084 7.08383 6.57844 7.0127 6.93957 7.0127C7.30071 7.0127 7.65831 7.08383 7.99195 7.22203C8.3256 7.36023 8.62875 7.56279 8.88412 7.81815" stroke="white" stroke-width="1.5" stroke-linecap="round" stroke-linejoin="round"/>
</svg>
