<svg width="22" height="22" viewBox="0 0 22 22" fill="none" xmlns="http://www.w3.org/2000/svg">
<path d="M9.44222 3.64853C9.56773 3.33833 9.78302 3.07267 10.0605 2.88562C10.338 2.69856 10.665 2.59863 10.9996 2.59863C11.3342 2.59863 11.6612 2.69856 11.9387 2.88562C12.2162 3.07267 12.4314 3.33833 12.5569 3.64853C13.7991 3.99014 14.8948 4.73008 15.6757 5.75469C16.4566 6.77931 16.8795 8.03194 16.8796 9.32022V13.2657L18.4185 15.574C18.5029 15.7005 18.5514 15.8476 18.5587 15.9995C18.5661 16.1514 18.5321 16.3024 18.4604 16.4365C18.3886 16.5706 18.2818 16.6827 18.1514 16.7608C18.0209 16.839 17.8717 16.8802 17.7196 16.8802H13.9102C13.8091 17.58 13.4592 18.22 12.9246 18.6828C12.3901 19.1457 11.7067 19.4004 10.9996 19.4004C10.2925 19.4004 9.6091 19.1457 9.07456 18.6828C8.54001 18.22 8.19012 17.58 8.08898 16.8802H4.27958C4.1275 16.8802 3.97827 16.839 3.84781 16.7608C3.71735 16.6827 3.61055 16.5706 3.5388 16.4365C3.46706 16.3024 3.43306 16.1514 3.44044 15.9995C3.44782 15.8476 3.4963 15.7005 3.5807 15.574L5.11958 13.2657V9.32022C5.11958 6.61205 6.95078 4.33061 9.44222 3.64853ZM9.81183 16.8802C9.89858 17.1261 10.0594 17.3389 10.2723 17.4895C10.4851 17.6401 10.7393 17.7209 11 17.7209C11.2607 17.7209 11.515 17.6401 11.7278 17.4895C11.9406 17.3389 12.1014 17.1261 12.1882 16.8802H9.81099H9.81183ZM10.9996 5.12021C9.88568 5.12021 8.81739 5.56271 8.02974 6.35037C7.24208 7.13802 6.79958 8.20631 6.79958 9.32022V13.5202C6.79962 13.6861 6.75051 13.8484 6.65846 13.9864L5.84954 15.2002H16.1488L15.3399 13.9864C15.2481 13.8483 15.1993 13.6861 15.1996 13.5202V9.32022C15.1996 8.20631 14.7571 7.13802 13.9694 6.35037C13.1818 5.56271 12.1135 5.12021 10.9996 5.12021Z" fill="#4364F7"/>
</svg>
