<svg width="16" height="17" viewBox="0 0 16 17" fill="none" xmlns="http://www.w3.org/2000/svg">
<path d="M9.79289 14.2021H3C2.86739 14.2021 2.74021 14.1495 2.64645 14.0557C2.55268 13.9619 2.5 13.8348 2.5 13.7021V3.70215C2.5 3.56954 2.55268 3.44236 2.64645 3.3486C2.74021 3.25483 2.86739 3.20215 3 3.20215H13C13.1326 3.20215 13.2598 3.25483 13.3536 3.3486C13.4473 3.44236 13.5 3.56954 13.5 3.70215V10.495C13.5 10.5607 13.4871 10.6257 13.4619 10.6864C13.4368 10.747 13.4 10.8022 13.3536 10.8486L10.1464 14.0557C10.1 14.1021 10.0449 14.139 9.98423 14.1641C9.92357 14.1892 9.85855 14.2021 9.79289 14.2021V14.2021Z" stroke="white" stroke-width="1.2" stroke-linecap="round" stroke-linejoin="round"/>
<path d="M13.4551 10.7012H10V14.1562" stroke="white" stroke-width="1.2" stroke-linecap="round" stroke-linejoin="round"/>
</svg>
