<svg width="16" height="17" viewBox="0 0 16 17" fill="none" xmlns="http://www.w3.org/2000/svg">
<path d="M12.6654 2.98568H11.332V2.31901C11.332 2.1422 11.2618 1.97263 11.1368 1.84761C11.0117 1.72258 10.8422 1.65234 10.6654 1.65234C10.4886 1.65234 10.319 1.72258 10.194 1.84761C10.0689 1.97263 9.9987 2.1422 9.9987 2.31901V2.98568H5.9987V2.31901C5.9987 2.1422 5.92846 1.97263 5.80344 1.84761C5.67841 1.72258 5.50884 1.65234 5.33203 1.65234C5.15522 1.65234 4.98565 1.72258 4.86063 1.84761C4.7356 1.97263 4.66536 2.1422 4.66536 2.31901V2.98568H3.33203C2.8016 2.98568 2.29289 3.19639 1.91782 3.57146C1.54274 3.94654 1.33203 4.45524 1.33203 4.98568V12.9857C1.33203 13.5161 1.54274 14.0248 1.91782 14.3999C2.29289 14.775 2.8016 14.9857 3.33203 14.9857H12.6654C13.1958 14.9857 13.7045 14.775 14.0796 14.3999C14.4547 14.0248 14.6654 13.5161 14.6654 12.9857V4.98568C14.6654 4.45524 14.4547 3.94654 14.0796 3.57146C13.7045 3.19639 13.1958 2.98568 12.6654 2.98568ZM13.332 12.9857C13.332 13.1625 13.2618 13.3321 13.1368 13.4571C13.0117 13.5821 12.8422 13.6523 12.6654 13.6523H3.33203C3.15522 13.6523 2.98565 13.5821 2.86063 13.4571C2.7356 13.3321 2.66536 13.1625 2.66536 12.9857V8.31901H13.332V12.9857ZM13.332 6.98568H2.66536V4.98568C2.66536 4.80887 2.7356 4.6393 2.86063 4.51427C2.98565 4.38925 3.15522 4.31901 3.33203 4.31901H4.66536V4.98568C4.66536 5.16249 4.7356 5.33206 4.86063 5.45708C4.98565 5.58211 5.15522 5.65234 5.33203 5.65234C5.50884 5.65234 5.67841 5.58211 5.80344 5.45708C5.92846 5.33206 5.9987 5.16249 5.9987 4.98568V4.31901H9.9987V4.98568C9.9987 5.16249 10.0689 5.33206 10.194 5.45708C10.319 5.58211 10.4886 5.65234 10.6654 5.65234C10.8422 5.65234 11.0117 5.58211 11.1368 5.45708C11.2618 5.33206 11.332 5.16249 11.332 4.98568V4.31901H12.6654C12.8422 4.31901 13.0117 4.38925 13.1368 4.51427C13.2618 4.6393 13.332 4.80887 13.332 4.98568V6.98568Z" fill="#4364F7"/>
</svg>
