<svg width="27" height="27" viewBox="0 0 27 27" fill="none" xmlns="http://www.w3.org/2000/svg">
<path d="M13.4619 2.91309V5.31698" stroke="#4364F7" stroke-width="1.60259" stroke-linecap="round" stroke-linejoin="round"/>
<path d="M13.4619 21.3428V23.7467" stroke="#4364F7" stroke-width="1.60259" stroke-linecap="round" stroke-linejoin="round"/>
<path d="M19.0712 9.32338C19.0712 8.79724 18.9676 8.27625 18.7662 7.79016C18.5649 7.30408 18.2698 6.8624 17.8977 6.49037C17.5257 6.11833 17.084 5.82321 16.5979 5.62187C16.1119 5.42053 15.5909 5.31689 15.0647 5.31689H11.4589C10.3963 5.31689 9.37724 5.73901 8.62588 6.49037C7.87452 7.24173 7.45241 8.26079 7.45241 9.32338C7.45241 10.386 7.87452 11.405 8.62588 12.1564C9.37724 12.9078 10.3963 13.3299 11.4589 13.3299H15.866C16.9286 13.3299 17.9477 13.752 18.699 14.5033C19.4504 15.2547 19.8725 16.2738 19.8725 17.3364C19.8725 18.3989 19.4504 19.418 18.699 20.1694C17.9477 20.9207 16.9286 21.3428 15.866 21.3428H11.0582C9.99566 21.3428 8.97659 20.9207 8.22523 20.1694C7.47387 19.418 7.05176 18.3989 7.05176 17.3364" stroke="#4364F7" stroke-width="1.60259" stroke-linecap="round" stroke-linejoin="round"/>
</svg>
