<svg width="27" height="27" viewBox="0 0 27 27" fill="none" xmlns="http://www.w3.org/2000/svg">
<path d="M10.2568 13.6699H16.6672" stroke="#6E7485" stroke-width="1.60259" stroke-linecap="round" stroke-linejoin="round"/>
<path d="M10.2568 16.875H16.6672" stroke="#6E7485" stroke-width="1.60259" stroke-linecap="round" stroke-linejoin="round"/>
<path d="M6.25052 4.85547H20.6739C20.8864 4.85547 21.0902 4.93989 21.2405 5.09016C21.3907 5.24044 21.4752 5.44425 21.4752 5.65677V20.8814C21.4752 21.519 21.2219 22.1304 20.7711 22.5812C20.3203 23.032 19.7088 23.2853 19.0713 23.2853H7.85311C7.21556 23.2853 6.60412 23.032 6.1533 22.5812C5.70249 22.1304 5.44922 21.519 5.44922 20.8814V5.65677C5.44922 5.44425 5.53364 5.24044 5.68391 5.09016C5.83419 4.93989 6.038 4.85547 6.25052 4.85547Z" stroke="#6E7485" stroke-width="1.60259" stroke-linecap="round" stroke-linejoin="round"/>
<path d="M8.6543 3.25293V6.45812" stroke="#6E7485" stroke-width="1.60259" stroke-linecap="round" stroke-linejoin="round"/>
<path d="M13.4619 3.25293V6.45812" stroke="#6E7485" stroke-width="1.60259" stroke-linecap="round" stroke-linejoin="round"/>
<path d="M18.2705 3.25293V6.45812" stroke="#6E7485" stroke-width="1.60259" stroke-linecap="round" stroke-linejoin="round"/>
</svg>
