<svg width="28" height="32" viewBox="0 0 28 32" fill="none" xmlns="http://www.w3.org/2000/svg">
<path d="M8.17164 30.903L8.7259 27.3824L7.49126 27.3537H1.5957L5.69281 1.37533C5.70501 1.29596 5.74533 1.22361 5.80641 1.17147C5.86749 1.11934 5.94528 1.09089 6.02558 1.09131H15.9663C19.2665 1.09131 21.5439 1.77805 22.733 3.13351C23.2905 3.76938 23.6455 4.43386 23.8172 5.16511C23.9973 5.93239 24.0005 6.8491 23.8246 7.96717L23.8119 8.04878V8.76519L24.3693 9.081C24.7949 9.2966 25.1774 9.58825 25.498 9.94155C25.9749 10.4852 26.2833 11.1762 26.4136 11.9954C26.5482 12.8379 26.5037 13.8405 26.2833 14.9755C26.0289 16.2812 25.6177 17.4183 25.0624 18.3488C24.5724 19.1824 23.9137 19.9043 23.1283 20.4683C22.3907 20.9919 21.5143 21.3893 20.5234 21.6436C19.5632 21.8938 18.4685 22.0199 17.2677 22.0199H16.4941C15.9409 22.0199 15.4036 22.2191 14.9818 22.5763C14.5606 22.9372 14.2812 23.4359 14.1933 23.9836L14.135 24.3005L13.1558 30.5055L13.1113 30.7334C13.0996 30.8055 13.0795 30.8415 13.0498 30.8659C13.0211 30.8894 12.9852 30.9024 12.9481 30.903H8.17164Z" fill="#253B80"/>
<path d="M24.8968 8.12744C24.8672 8.31714 24.8332 8.51108 24.7951 8.71032C23.4841 15.441 18.9992 17.7661 13.271 17.7661H10.3545C9.654 17.7661 9.0637 18.2748 8.95455 18.9658L7.46131 28.436L7.03846 31.1205C7.02162 31.2269 7.02805 31.3358 7.05731 31.4396C7.08658 31.5433 7.13798 31.6395 7.20798 31.7215C7.27798 31.8035 7.36492 31.8693 7.4628 31.9145C7.56069 31.9596 7.6672 31.9831 7.77501 31.9831H12.9478C13.5604 31.9831 14.0807 31.538 14.1771 30.9339L14.228 30.6711L15.202 24.4905L15.2645 24.1513C15.3599 23.5451 15.8813 23.1 16.4938 23.1H17.2675C22.2792 23.1 26.2025 21.0652 27.3492 15.1771C27.8282 12.7174 27.5802 10.6635 26.3127 9.21902C25.911 8.77217 25.4312 8.40227 24.8968 8.12744Z" fill="#179BD7"/>
<path d="M23.527 7.58127C23.1084 7.46018 22.6826 7.36567 22.252 7.29831C21.4014 7.16758 20.5416 7.10485 19.681 7.11073H11.8895C11.593 7.1105 11.3062 7.21636 11.0809 7.40917C10.8556 7.60199 10.7068 7.86903 10.6612 8.16203L9.00374 18.6602L8.95605 18.9665C9.00769 18.6323 9.17724 18.3276 9.43402 18.1076C9.6908 17.8875 10.0179 17.7667 10.356 17.7668H13.2725C19.0006 17.7668 23.4856 15.4406 24.7966 8.711C24.8358 8.51176 24.8686 8.31782 24.8983 8.12812C24.5524 7.94672 24.1919 7.79463 23.8205 7.67347C23.7232 7.64117 23.6253 7.61043 23.527 7.58127Z" fill="#222D65"/>
<path d="M10.6593 8.16463C10.7045 7.87154 10.8533 7.60437 11.0787 7.41166C11.3041 7.21894 11.5911 7.11346 11.8876 7.11438H19.6791C20.6022 7.11438 21.4638 7.17479 22.2502 7.30196C22.7823 7.38559 23.3071 7.51067 23.8197 7.67607C24.2065 7.8043 24.5658 7.95585 24.8975 8.13071C25.2875 5.64341 24.8943 3.94988 23.5495 2.41637C22.0668 0.728142 19.3909 0.00537109 15.9667 0.00537109H6.02598C5.32653 0.00537109 4.72987 0.514066 4.62177 1.2061L0.481205 27.4516C0.461919 27.5734 0.469257 27.698 0.502714 27.8168C0.53617 27.9355 0.594952 28.0456 0.675015 28.1395C0.755078 28.2333 0.854523 28.3087 0.966508 28.3605C1.07849 28.4122 1.20036 28.4391 1.32373 28.4393H7.46092L9.00185 18.6628L10.6593 8.16463Z" fill="#253B80"/>
</svg>
