<svg width="21" height="21" viewBox="0 0 21 21" fill="none" xmlns="http://www.w3.org/2000/svg">
<g clip-path="url(#clip0_6713_25825)">
<path d="M20.1982 4.0302C19.4545 4.35645 18.662 4.5727 17.8357 4.6777C18.6857 4.1702 19.3345 3.3727 19.6395 2.41145C18.847 2.88395 17.972 3.2177 17.0395 3.40395C16.287 2.6027 15.2145 2.10645 14.0445 2.10645C11.7745 2.10645 9.94699 3.94895 9.94699 6.2077C9.94699 6.5327 9.97449 6.8452 10.042 7.14269C6.63324 6.97645 3.61699 5.3427 1.59074 2.85395C1.23699 3.4677 1.02949 4.1702 1.02949 4.92645C1.02949 6.34645 1.76074 7.6052 2.85074 8.33395C2.19199 8.32144 1.54574 8.1302 0.998242 7.82895C0.998242 7.84145 0.998242 7.8577 0.998242 7.87395C0.998242 9.86645 2.41949 11.5214 4.28324 11.9027C3.94949 11.9939 3.58574 12.0377 3.20824 12.0377C2.94574 12.0377 2.68074 12.0227 2.43199 11.9677C2.96324 13.5914 4.47074 14.7852 6.26324 14.8239C4.86824 15.9152 3.09699 16.5727 1.17949 16.5727C0.843242 16.5727 0.520742 16.5577 0.198242 16.5164C2.01449 17.6877 4.16699 18.3564 6.48824 18.3564C14.0332 18.3564 18.1582 12.1064 18.1582 6.68895C18.1582 6.5077 18.152 6.3327 18.1432 6.15895C18.957 5.58145 19.6407 4.8602 20.1982 4.0302Z" fill="#363B47"/>
</g>
<defs>
<clipPath id="clip0_6713_25825">
<rect width="20" height="20" fill="white" transform="translate(0.198242 0.230957)"/>
</clipPath>
</defs>
</svg>
