<svg width="25" height="25" viewBox="0 0 25 25" fill="none" xmlns="http://www.w3.org/2000/svg">
<path opacity="0.2" d="M5.05331 18.9113C5.07669 19.0099 5.11977 19.1028 5.17997 19.1843C5.24016 19.2658 5.31622 19.3342 5.40357 19.3856C5.49093 19.4369 5.58776 19.4701 5.68825 19.483C5.78875 19.496 5.89082 19.4884 5.98833 19.4609C10.4592 18.2265 15.1809 18.226 19.652 19.4596C19.7495 19.4871 19.8515 19.4946 19.952 19.4817C20.0524 19.4687 20.1492 19.4356 20.2366 19.3843C20.3239 19.333 20.3999 19.2645 20.4601 19.1831C20.5203 19.1016 20.5634 19.0088 20.5868 18.9103L22.9764 8.75559C23.0084 8.61965 23.0018 8.47747 22.9573 8.34508C22.9129 8.21269 22.8323 8.09533 22.7248 8.00624C22.6173 7.91714 22.487 7.85985 22.3486 7.8408C22.2103 7.82175 22.0693 7.84171 21.9417 7.89843L17.1995 10.0061C17.0283 10.0822 16.8347 10.0914 16.657 10.032C16.4793 9.97258 16.3303 9.84877 16.2393 9.68496L13.4781 4.71487C13.4132 4.59795 13.3181 4.50053 13.2028 4.4327C13.0876 4.36487 12.9563 4.3291 12.8225 4.3291C12.6887 4.3291 12.5574 4.36487 12.4422 4.4327C12.3269 4.50053 12.2318 4.59795 12.1669 4.71487L9.40572 9.68496C9.31472 9.84877 9.16569 9.97258 8.98798 10.032C8.81026 10.0914 8.61674 10.0822 8.4455 10.0061L3.70255 7.89811C3.57496 7.8414 3.43407 7.82144 3.29574 7.84047C3.15741 7.8595 3.02715 7.91676 2.9196 8.00582C2.81206 8.09487 2.73151 8.21218 2.68703 8.34454C2.64254 8.47689 2.63589 8.61903 2.66782 8.75496L5.05331 18.9113Z" fill="#23BD33"/>
<path d="M5.05331 18.9113C5.07669 19.0099 5.11977 19.1028 5.17997 19.1843C5.24016 19.2658 5.31622 19.3342 5.40357 19.3856C5.49093 19.4369 5.58776 19.4701 5.68825 19.483C5.78875 19.496 5.89082 19.4884 5.98833 19.4609C10.4592 18.2265 15.1809 18.226 19.652 19.4596C19.7495 19.4871 19.8515 19.4946 19.952 19.4817C20.0524 19.4687 20.1492 19.4356 20.2366 19.3843C20.3239 19.333 20.3999 19.2645 20.4601 19.1831C20.5203 19.1016 20.5634 19.0088 20.5868 18.9103L22.9764 8.75559C23.0084 8.61965 23.0018 8.47747 22.9573 8.34508C22.9129 8.21269 22.8323 8.09533 22.7248 8.00624C22.6173 7.91714 22.487 7.85985 22.3486 7.8408C22.2103 7.82175 22.0693 7.84171 21.9417 7.89843L17.1995 10.0061C17.0283 10.0822 16.8347 10.0914 16.657 10.032C16.4793 9.97258 16.3303 9.84877 16.2393 9.68496L13.4781 4.71487C13.4132 4.59795 13.3181 4.50053 13.2028 4.4327C13.0876 4.36487 12.9563 4.3291 12.8225 4.3291C12.6887 4.3291 12.5574 4.36487 12.4422 4.4327C12.3269 4.50053 12.2318 4.59795 12.1669 4.71487L9.40572 9.68496C9.31472 9.84877 9.16569 9.97258 8.98798 10.032C8.81026 10.0914 8.61674 10.0822 8.4455 10.0061L3.70255 7.89811C3.57496 7.8414 3.43407 7.82144 3.29574 7.84047C3.15741 7.8595 3.02715 7.91676 2.9196 8.00582C2.81206 8.09487 2.73151 8.21218 2.68703 8.34454C2.64254 8.47689 2.63589 8.61903 2.66782 8.75496L5.05331 18.9113Z" stroke="#23BD33" stroke-width="1.68935" stroke-linecap="round" stroke-linejoin="round"/>
<path d="M9.82373 15.6906C11.8182 15.4807 13.8292 15.4807 15.8237 15.6906" stroke="#23BD33" stroke-width="1.68935" stroke-linecap="round" stroke-linejoin="round"/>
</svg>
