<svg width="16" height="17" viewBox="0 0 16 17" fill="none" xmlns="http://www.w3.org/2000/svg">
<path d="M8 14.7021C11.3137 14.7021 14 12.0159 14 8.70215C14 5.38844 11.3137 2.70215 8 2.70215C4.68629 2.70215 2 5.38844 2 8.70215C2 12.0159 4.68629 14.7021 8 14.7021Z" stroke="white" stroke-width="1.5" stroke-linecap="round" stroke-linejoin="round"/>
<path d="M7.5 8.20215H8V11.7021H8.5" stroke="white" stroke-width="1.5" stroke-linecap="round" stroke-linejoin="round"/>
<mask id="path-3-inside-1_6510_10693" fill="white">
<path d="M8 6.70215C8.41421 6.70215 8.75 6.36636 8.75 5.95215C8.75 5.53793 8.41421 5.20215 8 5.20215C7.58579 5.20215 7.25 5.53793 7.25 5.95215C7.25 6.36636 7.58579 6.70215 8 6.70215Z"/>
</mask>
<path d="M8 6.70215C8.41421 6.70215 8.75 6.36636 8.75 5.95215C8.75 5.53793 8.41421 5.20215 8 5.20215C7.58579 5.20215 7.25 5.53793 7.25 5.95215C7.25 6.36636 7.58579 6.70215 8 6.70215Z" fill="#222021"/>
<path d="M7.25 5.95215C7.25 5.53793 7.58579 5.20215 8 5.20215V8.20215C9.24264 8.20215 10.25 7.19479 10.25 5.95215H7.25ZM8 5.20215C8.41421 5.20215 8.75 5.53793 8.75 5.95215H5.75C5.75 7.19479 6.75736 8.20215 8 8.20215V5.20215ZM8.75 5.95215C8.75 6.36636 8.41421 6.70215 8 6.70215V3.70215C6.75736 3.70215 5.75 4.70951 5.75 5.95215H8.75ZM8 6.70215C7.58579 6.70215 7.25 6.36636 7.25 5.95215H10.25C10.25 4.70951 9.24264 3.70215 8 3.70215V6.70215Z" fill="white" mask="url(#path-3-inside-1_6510_10693)"/>
</svg>
