<svg width="20" height="21" viewBox="0 0 20 21" fill="none" xmlns="http://www.w3.org/2000/svg">
<path d="M10.3446 15.0719L14.2849 17.5683C14.7886 17.8874 15.4139 17.4128 15.2644 16.8249L14.126 12.3465C14.0939 12.2218 14.0977 12.0906 14.137 11.9679C14.1762 11.8452 14.2492 11.7361 14.3477 11.6531L17.8811 8.71222C18.3453 8.3258 18.1057 7.55529 17.5092 7.51657L12.8949 7.2171C12.7706 7.20822 12.6514 7.16422 12.5511 7.09021C12.4509 7.01621 12.3737 6.91524 12.3286 6.79908L10.6076 2.46526C10.5609 2.34196 10.4777 2.23582 10.3692 2.16092C10.2606 2.08601 10.1319 2.0459 10 2.0459C9.86813 2.0459 9.73938 2.08601 9.63085 2.16092C9.52232 2.23582 9.43914 2.34196 9.39236 2.46526L7.6714 6.79908C7.62631 6.91524 7.54914 7.01621 7.4489 7.09021C7.34865 7.16422 7.22944 7.20822 7.10515 7.2171L2.49078 7.51657C1.89429 7.55529 1.65466 8.3258 2.11894 8.71222L5.65232 11.6531C5.75079 11.7361 5.82383 11.8452 5.86305 11.9679C5.90226 12.0906 5.90606 12.2218 5.874 12.3465L4.81824 16.4997C4.63889 17.2052 5.38929 17.7747 5.99369 17.3918L9.65539 15.0719C9.75837 15.0063 9.87792 14.9715 10 14.9715C10.1221 14.9715 10.2416 15.0063 10.3446 15.0719Z" fill="#FD8E1F"/>
</svg>
