<svg width="16" height="17" viewBox="0 0 16 17" fill="none" xmlns="http://www.w3.org/2000/svg">
<g clip-path="url(#clip0_1532_20100)">
<path d="M8.0013 14.3177C8.78923 14.3177 9.56945 14.1625 10.2974 13.861C11.0254 13.5595 11.6868 13.1175 12.2439 12.5603C12.8011 12.0032 13.2431 11.3418 13.5446 10.6138C13.8461 9.88585 14.0013 9.10564 14.0013 8.31771C14.0013 7.52978 13.8461 6.74956 13.5446 6.02161C13.2431 5.29365 12.8011 4.63222 12.2439 4.07507C11.6868 3.51792 11.0254 3.07596 10.2974 2.77443C9.56945 2.4729 8.78923 2.31771 8.0013 2.31771C6.41 2.31771 4.88388 2.94985 3.75866 4.07507C2.63344 5.20029 2.0013 6.72641 2.0013 8.31771C2.0013 9.90901 2.63344 11.4351 3.75866 12.5603C4.88388 13.6856 6.41 14.3177 8.0013 14.3177ZM15.3346 8.31771C15.3346 12.3677 12.0513 15.651 8.0013 15.651C3.9513 15.651 0.667969 12.3677 0.667969 8.31771C0.667969 4.26771 3.9513 0.984375 8.0013 0.984375C12.0513 0.984375 15.3346 4.26771 15.3346 8.31771ZM10.0013 11.2604L7.33463 8.59371V3.98437H8.66797V8.04171L10.944 10.3177L10.0013 11.2604Z" fill="#4364F7"/>
</g>
<defs>
<clipPath id="clip0_1532_20100">
<rect width="16" height="16" fill="white" transform="translate(0 0.318359)"/>
</clipPath>
</defs>
</svg>
