<svg width="25" height="25" viewBox="0 0 25 25" fill="none" xmlns="http://www.w3.org/2000/svg">
<path opacity="0.2" d="M9.07568 15.6025C11.7681 15.6025 13.9507 13.4199 13.9507 10.7275C13.9507 8.03515 11.7681 5.85254 9.07568 5.85254C6.3833 5.85254 4.20068 8.03515 4.20068 10.7275C4.20068 13.4199 6.3833 15.6025 9.07568 15.6025Z" fill="#1D006D"/>
<path d="M9.07568 15.6025C11.7681 15.6025 13.9507 13.4199 13.9507 10.7275C13.9507 8.03515 11.7681 5.85254 9.07568 5.85254C6.3833 5.85254 4.20068 8.03515 4.20068 10.7275C4.20068 13.4199 6.3833 15.6025 9.07568 15.6025Z" stroke="#1D006D" stroke-width="2" stroke-miterlimit="10"/>
<path d="M15.396 6.03427C16.0665 5.84535 16.7697 5.80232 17.4583 5.90806C18.1468 6.0138 18.8047 6.26587 19.3877 6.64729C19.9706 7.0287 20.465 7.53061 20.8376 8.1192C21.2103 8.70779 21.4524 9.36939 21.5478 10.0595C21.6432 10.7495 21.5896 11.452 21.3907 12.1196C21.1917 12.7872 20.852 13.4044 20.3944 13.9297C19.9368 14.455 19.372 14.8761 18.738 15.1647C18.1039 15.4532 17.4154 15.6026 16.7188 15.6027" stroke="#1D006D" stroke-width="2" stroke-linecap="round" stroke-linejoin="round"/>
<path d="M2.32568 19.1085C3.08706 18.0255 4.09783 17.1416 5.27267 16.5314C6.4475 15.9212 7.75191 15.6026 9.07576 15.6025C10.3996 15.6025 11.704 15.921 12.8789 16.5311C14.0538 17.1412 15.0647 18.025 15.8261 19.108" stroke="#1D006D" stroke-width="2" stroke-linecap="round" stroke-linejoin="round"/>
<path d="M16.7183 15.6025C18.0422 15.6016 19.3469 15.9197 20.5219 16.5299C21.6969 17.14 22.7075 18.0244 23.4683 19.108" stroke="#1D006D" stroke-width="2" stroke-linecap="round" stroke-linejoin="round"/>
</svg>
