<svg width="10" height="7" viewBox="0 0 10 7" fill="none" xmlns="http://www.w3.org/2000/svg">
<path fill-rule="evenodd" clip-rule="evenodd" d="M8.334 6.01923L5.00067 1.67082L1.66733 6.01923C1.62356 6.07634 1.56728 6.12538 1.50171 6.16357C1.43614 6.20176 1.36257 6.22834 1.28518 6.2418C1.2078 6.25526 1.12813 6.25534 1.05071 6.24202C0.973299 6.2287 0.899659 6.20225 0.833998 6.16418C0.70139 6.0873 0.609332 5.96775 0.578076 5.83183C0.562599 5.76453 0.562516 5.69524 0.57783 5.62792C0.593145 5.56059 0.623558 5.49655 0.667332 5.43945L4.446 0.510088C4.50688 0.430682 4.58936 0.365574 4.68612 0.320544C4.78288 0.275514 4.89092 0.251953 5.00067 0.251953C5.11041 0.251953 5.21845 0.275514 5.31521 0.320544C5.41197 0.365574 5.49445 0.430682 5.55533 0.510088L9.334 5.43945C9.37777 5.49655 9.40819 5.56059 9.4235 5.62792C9.43881 5.69524 9.43873 5.76453 9.42326 5.83183C9.40778 5.89913 9.37721 5.96312 9.3333 6.02014C9.28939 6.07717 9.23299 6.12611 9.16733 6.16418C9.10167 6.20225 9.02803 6.2287 8.95062 6.24202C8.8732 6.25534 8.79353 6.25526 8.71615 6.2418C8.63877 6.22834 8.56519 6.20176 8.49962 6.16357C8.43405 6.12538 8.37777 6.07634 8.334 6.01923Z" fill="#4E5566"/>
</svg>
