<svg width="17" height="17" viewBox="0 0 17 17" fill="none" xmlns="http://www.w3.org/2000/svg">
<path d="M8.82764 14C8.82764 14 2.57764 10.5 2.57764 6.25001C2.57776 5.49884 2.83804 4.7709 3.31423 4.18995C3.79041 3.609 4.4531 3.21091 5.18963 3.06334C5.92616 2.91578 6.69106 3.02786 7.3543 3.38053C8.01753 3.73319 8.53815 4.30468 8.82764 4.99782L8.82763 4.99782C9.11712 4.30468 9.63774 3.7332 10.301 3.38053C10.9642 3.02786 11.7291 2.91578 12.4656 3.06334C13.2022 3.21091 13.8649 3.609 14.341 4.18995C14.8172 4.7709 15.0775 5.49884 15.0776 6.25001C15.0776 10.5 8.82764 14 8.82764 14Z" fill="#4364F7" stroke="#4364F7" stroke-width="1.17273" stroke-linecap="round" stroke-linejoin="round"/>
</svg>
