<svg width="20" height="21" viewBox="0 0 20 21" fill="none" xmlns="http://www.w3.org/2000/svg">
<path d="M2.66184 11.6924C1.96297 10.5143 1.71822 9.12159 1.97355 7.77578C2.22888 6.42997 2.96672 5.22366 4.04852 4.38337C5.13033 3.54308 6.48168 3.1266 7.84882 3.21216C9.21596 3.29771 10.5048 3.8794 11.4735 4.848C12.4421 5.81661 13.0238 7.10549 13.1093 8.47263C13.1949 9.83977 12.7784 11.1911 11.9381 12.2729C11.0978 13.3547 9.89152 14.0926 8.54572 14.3479C7.19991 14.6033 5.80718 14.3585 4.62905 13.6596L4.62907 13.6596L2.6863 14.2147C2.60592 14.2376 2.52086 14.2387 2.43994 14.2177C2.35902 14.1967 2.28518 14.1545 2.22607 14.0954C2.16696 14.0363 2.12473 13.9625 2.10376 13.8815C2.08279 13.8006 2.08384 13.7156 2.10681 13.6352L2.66189 11.6924L2.66184 11.6924Z" stroke="#4E5566" stroke-width="1.3" stroke-linecap="round" stroke-linejoin="round"/>
<path d="M7.19531 14.4384C7.47183 15.2234 7.919 15.9373 8.50462 16.5287C9.09023 17.1201 9.79972 17.5743 10.582 17.8585C11.3642 18.1427 12.1998 18.2499 13.0284 18.1723C13.8571 18.0948 14.6582 17.8344 15.3742 17.41L15.3741 17.4099L17.3169 17.965C17.3973 17.988 17.4823 17.989 17.5633 17.9681C17.6442 17.9471 17.718 17.9049 17.7771 17.8458C17.8363 17.7866 17.8785 17.7128 17.8995 17.6319C17.9204 17.551 17.9194 17.4659 17.8964 17.3855L17.3413 15.4428L17.3414 15.4428C17.8346 14.611 18.1051 13.6662 18.1268 12.6995C18.1485 11.7327 17.9207 10.7767 17.4653 9.92362C17.01 9.07055 16.3425 8.34924 15.5272 7.82926C14.7119 7.30929 13.7764 7.00821 12.8108 6.95508" stroke="#4E5566" stroke-width="1.3" stroke-linecap="round" stroke-linejoin="round"/>
</svg>
