<svg width="48" height="49" viewBox="0 0 48 49" fill="none" xmlns="http://www.w3.org/2000/svg">
<path d="M37.5015 42.6963H10.5C10.1022 42.6963 9.72064 42.5383 9.43934 42.257C9.15803 41.9757 9 41.5941 9 41.1963V8.19629C9 7.79846 9.15803 7.41693 9.43934 7.13563C9.72064 6.85432 10.1022 6.69629 10.5 6.69629H28.5015L39.0015 17.1963V41.1963C39.0015 41.3933 38.9627 41.5883 38.8873 41.7703C38.8119 41.9523 38.7014 42.1177 38.5621 42.257C38.4228 42.3962 38.2575 42.5067 38.0755 42.5821C37.8935 42.6575 37.6984 42.6963 37.5015 42.6963Z" stroke="#4364F7" stroke-width="2.5" stroke-linecap="round" stroke-linejoin="round"/>
<path d="M28.5 6.69629V17.1963H39.0015" stroke="#4364F7" stroke-width="2.5" stroke-linecap="round" stroke-linejoin="round"/>
<path d="M18 26.1963H30" stroke="#4364F7" stroke-width="2.5" stroke-linecap="round" stroke-linejoin="round"/>
<path d="M18 32.1963H30" stroke="#4364F7" stroke-width="2.5" stroke-linecap="round" stroke-linejoin="round"/>
</svg>
