<svg width="13" height="13" viewBox="0 0 13 13" fill="none" xmlns="http://www.w3.org/2000/svg">
<path d="M1.54102 9.79297V3.04297C1.54102 2.94351 1.58052 2.84813 1.65085 2.7778C1.72118 2.70748 1.81656 2.66797 1.91602 2.66797H4.41602C4.49715 2.66797 4.5761 2.69429 4.64102 2.74297L5.94102 3.71797C6.00593 3.76665 6.08488 3.79297 6.16602 3.79297H9.41602C9.51547 3.79297 9.61085 3.83248 9.68118 3.9028C9.75151 3.97313 9.79102 4.06851 9.79102 4.16797V5.29297" stroke="#6FB1FC" stroke-linecap="round" stroke-linejoin="round"/>
<path d="M1.54102 9.79297L2.94672 6.2787C2.97456 6.20911 3.02261 6.14946 3.08467 6.10744C3.14673 6.06543 3.21996 6.04297 3.2949 6.04297H5.55247C5.62651 6.04297 5.69889 6.02105 5.76049 5.97999L6.69654 5.35595C6.75814 5.31488 6.83052 5.29297 6.90456 5.29297H10.7707C10.8301 5.29297 10.8887 5.30709 10.9416 5.33416C10.9945 5.36124 11.0402 5.4005 11.0749 5.4487C11.1097 5.49691 11.1325 5.55268 11.1414 5.61142C11.1504 5.67016 11.1453 5.73018 11.1265 5.78655L9.79101 9.79297H1.54102Z" stroke="#6FB1FC" stroke-linecap="round" stroke-linejoin="round"/>
</svg>
