<svg width="27" height="27" viewBox="0 0 27 27" fill="none" xmlns="http://www.w3.org/2000/svg">
<path d="M9.4555 16.5922C12.332 16.5922 14.6639 14.2603 14.6639 11.3837C14.6639 8.50719 12.332 6.17529 9.4555 6.17529C6.57896 6.17529 4.24707 8.50719 4.24707 11.3837C4.24707 14.2603 6.57896 16.5922 9.4555 16.5922Z" stroke="#6E7485" stroke-width="1.60259" stroke-miterlimit="10"/>
<path d="M16.208 6.36855C16.9244 6.16671 17.6757 6.12073 18.4114 6.2337C19.147 6.34668 19.8499 6.61599 20.4727 7.02349C21.0955 7.43099 21.6237 7.96722 22.0218 8.59607C22.42 9.22492 22.6787 9.93178 22.7806 10.669C22.8825 11.4063 22.8253 12.1568 22.6127 12.8701C22.4001 13.5834 22.0372 14.2428 21.5483 14.804C21.0594 15.3652 20.4559 15.8151 19.7785 16.1234C19.1011 16.4317 18.3655 16.5913 17.6213 16.5914" stroke="#6E7485" stroke-width="1.60259" stroke-linecap="round" stroke-linejoin="round"/>
<path d="M2.24414 20.338C3.05759 19.1809 4.1375 18.2366 5.39269 17.5846C6.64788 16.9327 8.0415 16.5923 9.4559 16.5923C10.8703 16.5922 12.2639 16.9325 13.5192 17.5843C14.7744 18.2362 15.8544 19.1805 16.6679 20.3375" stroke="#6E7485" stroke-width="1.60259" stroke-linecap="round" stroke-linejoin="round"/>
<path d="M17.6211 16.5923C19.0356 16.5913 20.4296 16.9311 21.6849 17.583C22.9403 18.2349 24.02 19.1798 24.8328 20.3375" stroke="#6E7485" stroke-width="1.60259" stroke-linecap="round" stroke-linejoin="round"/>
</svg>
