<svg width="32" height="33" viewBox="0 0 32 33" fill="none" xmlns="http://www.w3.org/2000/svg">
<path d="M20.3361 24.4545H11.6846V8.91455H20.3362L20.3361 24.4545Z" fill="#FF5F00"/>
<path d="M12.2316 16.6838C12.2316 13.5316 13.7083 10.7235 16.0079 8.91387C14.2672 7.54205 12.1143 6.79752 9.89762 6.80079C4.43712 6.80079 0.0107422 11.2255 0.0107422 16.6838C0.0107422 22.1422 4.43712 26.5669 9.89762 26.5669C12.1144 26.5702 14.2673 25.8257 16.008 24.4538C13.7086 22.6445 12.2316 19.8363 12.2316 16.6838Z" fill="#EB001B"/>
<path d="M32.0059 16.6838C32.0059 22.1422 27.5795 26.5669 22.119 26.5669C19.9021 26.5701 17.7488 25.8256 16.0078 24.4538C18.308 22.6442 19.7848 19.8363 19.7848 16.6838C19.7848 13.5314 18.308 10.7235 16.0078 8.91387C17.7488 7.54209 19.902 6.79758 22.1189 6.80079C27.5794 6.80079 32.0058 11.2255 32.0058 16.6838" fill="#F79E1B"/>
</svg>
