<svg width="27" height="27" viewBox="0 0 27 27" fill="none" xmlns="http://www.w3.org/2000/svg">
<path d="M10.2568 13.7168H16.6672" stroke="#4364F7" stroke-width="1.60259" stroke-linecap="round" stroke-linejoin="round"/>
<path d="M10.2568 16.9219H16.6672" stroke="#4364F7" stroke-width="1.60259" stroke-linecap="round" stroke-linejoin="round"/>
<path d="M6.25052 4.90234H20.6739C20.8864 4.90234 21.0902 4.98677 21.2405 5.13704C21.3907 5.28731 21.4752 5.49112 21.4752 5.70364V20.9283C21.4752 21.5658 21.2219 22.1773 20.7711 22.6281C20.3203 23.0789 19.7088 23.3322 19.0713 23.3322H7.85311C7.21556 23.3322 6.60412 23.0789 6.1533 22.6281C5.70249 22.1773 5.44922 21.5658 5.44922 20.9283V5.70364C5.44922 5.49112 5.53364 5.28731 5.68391 5.13704C5.83419 4.98677 6.038 4.90234 6.25052 4.90234Z" stroke="#4364F7" stroke-width="1.60259" stroke-linecap="round" stroke-linejoin="round"/>
<path d="M8.6543 3.2998V6.50499" stroke="#4364F7" stroke-width="1.60259" stroke-linecap="round" stroke-linejoin="round"/>
<path d="M13.4619 3.2998V6.50499" stroke="#4364F7" stroke-width="1.60259" stroke-linecap="round" stroke-linejoin="round"/>
<path d="M18.2705 3.2998V6.50499" stroke="#4364F7" stroke-width="1.60259" stroke-linecap="round" stroke-linejoin="round"/>
</svg>
