<svg width="13" height="13" viewBox="0 0 13 13" fill="none" xmlns="http://www.w3.org/2000/svg">
<path d="M9.51623 2.03125H7.82664C7.61927 2.03125 7.45117 2.19935 7.45117 2.40672V9.91602C7.45117 10.1234 7.61927 10.2915 7.82664 10.2915H9.51623C9.7236 10.2915 9.8917 10.1234 9.8917 9.91602V2.40672C9.8917 2.19935 9.7236 2.03125 9.51623 2.03125Z" fill="#222021"/>
<path d="M4.44592 2.03125H2.75632C2.54896 2.03125 2.38086 2.19935 2.38086 2.40672V9.91602C2.38086 10.1234 2.54896 10.2915 2.75632 10.2915H4.44592C4.65328 10.2915 4.82138 10.1234 4.82138 9.91602V2.40672C4.82138 2.19935 4.65328 2.03125 4.44592 2.03125Z" fill="#222021"/>
</svg>
