<svg width="14" height="14" viewBox="0 0 14 14" fill="none" xmlns="http://www.w3.org/2000/svg">
<path d="M11.1766 6.61442L4.01555 2.23807C3.95523 2.20121 3.88618 2.18108 3.81551 2.17976C3.74483 2.17843 3.67508 2.19596 3.61342 2.23054C3.55177 2.26512 3.50044 2.31549 3.46471 2.37649C3.42899 2.43749 3.41016 2.5069 3.41016 2.57759V11.3303C3.41016 11.401 3.42899 11.4704 3.46471 11.5314C3.50044 11.5924 3.55177 11.6427 3.61342 11.6773C3.67508 11.7119 3.74483 11.7294 3.81551 11.7281C3.88618 11.7268 3.95523 11.7067 4.01555 11.6698L11.1766 7.29345C11.2348 7.25791 11.2828 7.20802 11.3162 7.14857C11.3495 7.08912 11.367 7.0221 11.367 6.95393C11.367 6.88577 11.3495 6.81875 11.3162 6.7593C11.2828 6.69985 11.2348 6.64996 11.1766 6.61442Z" fill="#6E7485"/>
</svg>
