<svg width="12" height="14" viewBox="0 0 12 14" fill="none" xmlns="http://www.w3.org/2000/svg">
<path d="M6.08431 0.376953C4.24631 0.376953 2.75098 1.87229 2.75098 3.71029V5.71029H2.08431C1.73069 5.71029 1.39155 5.85076 1.1415 6.10081C0.891452 6.35086 0.750977 6.69 0.750977 7.04362V12.377C0.750977 12.7306 0.891452 13.0697 1.1415 13.3198C1.39155 13.5698 1.73069 13.7103 2.08431 13.7103H10.0843C10.4379 13.7103 10.7771 13.5698 11.0271 13.3198C11.2772 13.0697 11.4176 12.7306 11.4176 12.377V7.04362C11.4176 6.69 11.2772 6.35086 11.0271 6.10081C10.7771 5.85076 10.4379 5.71029 10.0843 5.71029H9.41764V3.71029C9.41764 1.87229 7.92231 0.376953 6.08431 0.376953ZM4.08431 3.71029C4.08431 2.60762 4.98164 1.71029 6.08431 1.71029C7.18698 1.71029 8.08431 2.60762 8.08431 3.71029V5.71029H4.08431V3.71029ZM6.75098 10.859V12.377H5.41764V10.859C5.18457 10.7255 4.99741 10.5245 4.88086 10.2825C4.76431 10.0405 4.72383 9.76892 4.76477 9.50347C4.8057 9.23802 4.92612 8.9912 5.11015 8.79557C5.29418 8.59994 5.53319 8.46468 5.79564 8.40762C5.99059 8.36452 6.19272 8.36572 6.38714 8.41114C6.58156 8.45657 6.7633 8.54505 6.91896 8.67007C7.07463 8.79509 7.20025 8.95345 7.28656 9.13349C7.37286 9.31352 7.41766 9.51063 7.41764 9.71029C7.41726 9.94345 7.35543 10.1724 7.23839 10.374C7.12136 10.5757 6.95324 10.743 6.75098 10.859Z" fill="#4E5566"/>
</svg>
