<svg width="4" height="14" viewBox="0 0 4 14" fill="none" xmlns="http://www.w3.org/2000/svg">
<path d="M2 5.9209C2.24723 5.9209 2.4889 5.99421 2.69446 6.13156C2.90002 6.26891 3.06024 6.46413 3.15485 6.69254C3.24946 6.92095 3.27421 7.17228 3.22598 7.41476C3.17775 7.65724 3.0587 7.87996 2.88388 8.05478C2.70907 8.2296 2.48634 8.34865 2.24386 8.39688C2.00139 8.44511 1.75005 8.42036 1.52165 8.32575C1.29324 8.23114 1.09801 8.07092 0.960663 7.86536C0.823311 7.6598 0.75 7.41812 0.75 7.1709C0.75 6.83938 0.881696 6.52143 1.11612 6.28701C1.35054 6.05259 1.66848 5.9209 2 5.9209ZM0.75 12.4834C0.75 12.7306 0.823311 12.9723 0.960663 13.1779C1.09801 13.3834 1.29324 13.5436 1.52165 13.6382C1.75005 13.7329 2.00139 13.7576 2.24386 13.7094C2.48634 13.6611 2.70907 13.5421 2.88388 13.3673C3.0587 13.1925 3.17775 12.9697 3.22598 12.7273C3.27421 12.4848 3.24946 12.2335 3.15485 12.005C3.06024 11.7766 2.90002 11.5814 2.69446 11.4441C2.4889 11.3067 2.24723 11.2334 2 11.2334C1.66848 11.2334 1.35054 11.3651 1.11612 11.5995C0.881696 11.8339 0.75 12.1519 0.75 12.4834ZM0.75 1.8584C0.75 2.10562 0.823311 2.3473 0.960663 2.55286C1.09801 2.75842 1.29324 2.91864 1.52165 3.01325C1.75005 3.10785 2.00139 3.13261 2.24386 3.08438C2.48634 3.03615 2.70907 2.9171 2.88388 2.74228C3.0587 2.56746 3.17775 2.34474 3.22598 2.10226C3.27421 1.85978 3.24946 1.60845 3.15485 1.38004C3.06024 1.15163 2.90002 0.95641 2.69446 0.819059C2.4889 0.681707 2.24723 0.608396 2 0.608396C1.66848 0.608396 1.35054 0.740092 1.11612 0.974513C0.881696 1.20893 0.75 1.52688 0.75 1.8584Z" fill="#222021"/>
</svg>
