<svg width="32" height="11" viewBox="0 0 32 11" fill="none" xmlns="http://www.w3.org/2000/svg">
<path fill-rule="evenodd" clip-rule="evenodd" d="M11.266 10.4908H13.8772L15.5094 0.186084H12.898L11.266 10.4908ZM6.58007 7.27377L9.0694 0.186084H11.8796L7.72534 10.4911H5.00475L2.7362 1.5384C1.26337 0.629598 0.00488281 0.360568 0.00488281 0.360568L0.0049656 0.360269C0.0196677 0.363416 1.98997 0.787336 3.88013 2.35951C5.67942 3.85555 6.27603 5.71712 6.28564 5.74738L6.28577 5.74806L6.2855 5.74751L6.58007 7.27377ZM32.0049 10.4908H29.6073L29.3015 8.96017H25.9821L25.4377 10.4908H22.7158L26.6101 0.953758C26.6101 0.953758 26.8462 0.185809 27.8155 0.185809H29.9145L32.0049 10.4908ZM28.106 2.9894L26.7341 6.84569H28.8779L28.106 2.9894ZM23.2926 0.451255L22.92 2.66414C21.8026 2.03153 19.2596 1.88186 19.2593 3.04701C19.2593 3.50989 19.8347 3.82823 20.5282 4.21191C21.5799 4.79381 22.9033 5.526 22.9033 7.14063C22.9033 9.72067 20.2152 10.6686 18.4333 10.6686C16.652 10.6686 15.486 10.0867 15.486 10.0867L15.8742 7.77296C16.9433 8.65475 20.1828 8.90531 20.1828 7.50696C20.1828 6.91937 19.5451 6.57284 18.8056 6.17101C17.7853 5.61658 16.5712 4.95687 16.5712 3.41335C16.5712 0.583841 19.6483 0.00195312 20.9441 0.00195312C22.1428 0.00195312 23.2926 0.451255 23.2926 0.451255Z" fill="#2566AF"/>
<path d="M6.29763 5.60225L5.41737 1.08344C5.41737 1.08344 5.31093 0.178711 4.1764 0.178711H0.0532639L0.00488281 0.348852C0.00488281 0.348852 1.98662 0.759554 3.88745 2.29835C5.70497 3.76914 6.29763 5.60225 6.29763 5.60225Z" fill="#E6A540"/>
</svg>
