<svg width="21" height="21" viewBox="0 0 21 21" fill="none" xmlns="http://www.w3.org/2000/svg">
<g clip-path="url(#clip0_6713_25836)">
<path fill-rule="evenodd" clip-rule="evenodd" d="M16.8312 3.57152C15.077 1.81531 12.7441 0.84771 10.2588 0.84668C5.13758 0.84668 0.969643 5.0145 0.967583 10.1371C0.966896 11.7746 1.39468 13.3732 2.20778 14.7821L0.889648 19.5967L5.81507 18.3046C7.17223 19.045 8.70013 19.4351 10.255 19.4355H10.2589C15.3796 19.4355 19.548 15.2674 19.5499 10.1445C19.551 7.66186 18.5854 5.32761 16.8312 3.57152ZM10.2588 17.8664H10.2556C8.86996 17.8659 7.51097 17.4935 6.32513 16.79L6.04327 16.6226L3.12045 17.3893L3.90059 14.5396L3.71691 14.2475C2.94386 13.0179 2.53565 11.5968 2.53634 10.1377C2.53794 5.8799 6.0023 2.41589 10.2619 2.41589C12.3246 2.41658 14.2636 3.22087 15.7215 4.68056C17.1795 6.14026 17.982 8.08049 17.9813 10.144C17.9795 14.4021 14.5153 17.8664 10.2588 17.8664ZM14.4947 12.0827C14.2626 11.9664 13.1212 11.405 12.9083 11.3274C12.6957 11.2499 12.5408 11.2114 12.3862 11.4437C12.2313 11.676 11.7865 12.199 11.651 12.3538C11.5155 12.5088 11.3802 12.5282 11.148 12.412C10.9158 12.2958 10.1678 12.0506 9.28103 11.2597C8.59095 10.6441 8.12506 9.88385 7.98956 9.65153C7.85429 9.41899 7.98842 9.30546 8.09142 9.17775C8.34273 8.86567 8.59438 8.53848 8.67175 8.38364C8.74922 8.22869 8.71043 8.09308 8.65229 7.97692C8.59438 7.86076 8.1301 6.71807 7.93669 6.2531C7.74809 5.8006 7.55686 5.86171 7.41427 5.85461C7.279 5.84786 7.12416 5.84649 6.96932 5.84649C6.8146 5.84649 6.56306 5.90451 6.3502 6.13705C6.13745 6.36948 5.53778 6.93104 5.53778 8.07374C5.53778 9.21643 6.36965 10.3203 6.48569 10.4753C6.60174 10.6302 8.12277 12.9751 10.4515 13.9806C11.0054 14.22 11.4378 14.3627 11.775 14.4697C12.3312 14.6464 12.8372 14.6215 13.2373 14.5617C13.6833 14.495 14.6107 14.0001 14.8043 13.4578C14.9977 12.9155 14.9977 12.4508 14.9396 12.3538C14.8817 12.257 14.7268 12.199 14.4947 12.0827Z" fill="#363B47"/>
</g>
<defs>
<clipPath id="clip0_6713_25836">
<rect width="20" height="20" fill="white" transform="translate(0.198242 0.230957)"/>
</clipPath>
</defs>
</svg>
